<svg xmlns="http://www.w3.org/2000/svg" viewBox="0 0 16.933 16.933">
  <path fill="#47a039" d="M4.491 2.403s.127 2.001.37 2.975c.366.793.013-.696.045-.939-.03-.37-.111-1.392.069-.536.212.785.43 1.57.572 2.372-.493.294-.262 1.435-.472 1.502-.569-1.305-.909-2.707-1.585-3.965-.345-.449-.29.35.05.407.416.837.633 1.76 1.02 2.613.324.439-.003.71-.144.807.828.393.77 1.399.951 2.168.253 1.14.504 2.29.535 3.464-.636-1.592-1.45-3.117-1.92-4.771.053-.831-.304-1.614-.533-2.395.057 1.016.356 1.994.534 2.991C2.529 7.66 2.27 5.54 1.497 3.736c.13 1.098.644 2.105.918 3.164.095.728-1.091-.55-.388.185.965.871 1.07 2.255 1.485 3.416.195.696.663 1.86.592 2.286-.602-.828-.979-1.806-1.663-2.577 1.146 2.107 2.263 4.231 3.509 6.28-.112-.626-.633-1.199-.81-1.85-.84-1.995-1.397-4.093-1.962-6.18.719.49.936 1.423 1.285 2.175.58 1.627 1.156 3.273 1.436 4.982.18.915 1.37 1 2.113.871.75-.428.757-1.459 1.197-2.143.788-1.68 1.453-3.48 2.797-4.815.675-.69 1.402-1.33 2.057-2.04-1.13.789-2.108 1.782-2.95 2.87-.216-.837.41-1.586.44-2.413.195-.997.525-2.029 1.32-2.714.799-.85 1.73-1.56 2.563-2.373-1.258.778-2.238 1.905-3.372 2.839.037-.697.617-2.18.274-2.368-.426.918-.149 2.016-.686 2.883-.468.566-.78 1.633-1.429 1.853-.015-.84.163-1.69.213-2.536.213-.833.13-1.649.164-2.492.086-.888.565-1.657.995-2.409.038-.768-.357.606-.64.716-.552.538-.307-1.465-.39-.407.161.674-.538 1.987-.36 2.167.602-.204-.007.983.049 1.333.036 1.06-.012 2.117-.212 3.16-.18 1.201-.462 2.402-1.013 3.491-.08-.722.15-2.162-.039-2.433-.187 1.382-.188 2.792-.526 4.152-.292-1.084-.012-2.212-.127-3.314-.02-1.103.367-2.142.56-3.21.204-.558.377-1.66.144-1.902.057 1.094-.406 2.115-.713 3.136-.018.282-.175 1.436-.448 1.022-.055-.793.12-1.628-.157-2.387-.392.418.406 1.778-.384 2.223-.205-1.5-.22-3.022-.44-4.523-.097-.856-.276-1.704-.414-2.55-.241.826.201 1.718.234 2.573.251 1.353.274 2.727.292 4.098.027.77.035 1.548-.114 2.307-.53-.742-.245-1.71-.451-2.55.022-.27-.173-1.747-.299-.877-.101.898-.301-.604-.413-.847C5.345 4.535 4.4 1.465 4.4 1.465ZM9.236 4.86c.202-.303.745-1.681.249-.707a6.51 6.51 0 0 0-.249.707ZM5.67 6.558c.466 1.686.853 3.411.892 5.167-.354-1.526-.796-3.03-1.15-4.555-.001-.222.033-.5.258-.612Zm5.916.304c-.34 2.21-1.116 4.364-2.343 6.238-.135-.884.348-1.72.452-2.587.376-1.326.976-2.61 1.891-3.65Zm-6.324 1.51c.736 1.156.74 2.577 1.107 3.861.192.961.347 1.934.363 2.916-.688-.838-.376-1.999-.699-2.966a47.152 47.152 0 0 0-.771-3.81Zm2.366.128c.063 1.252.052 2.525-.262 3.746-.095-1.195-.276-2.474.187-3.612Zm.508 1.287c.319 1.088-.014 2.216.037 3.322-.24.695-.19-.826-.209-1.07-.013-.752-.058-1.524.172-2.252Zm-1.117.768c.384.226-.1 1.22-.04.374 0-.125.007-.252.04-.374Zm-2.172.623c.327.681.733 1.4.754 2.167-.324-.696-.451-1.463-.754-2.167Zm4.309.42a36.488 36.488 0 0 1-.617 3.087c-.403-.594.255-1.369.247-2.05.098-.354.217-.703.37-1.038Zm-1.48.838c.01.658.382 1.567-.086 2.09-.064-.695-.111-1.411.087-2.09Zm-.732.607c.139.568.397 1.843.186 1.992a7.97 7.97 0 0 1-.186-1.992Zm2.307.453c.175.476-.583.784-.134.166.022-.071.087-.112.134-.166Z"/>
  <path fill="#ffaa17" d="M6.76 8.884c-.133.111-.037.296.067.39.042.075.273.174.182.005-.072-.14-.202-.242-.25-.395Zm-.44.287c-.005.334.23.599.407.86.073.077.118.237.177.28.136-.088.064-.267-.01-.371-.164-.258-.415-.453-.558-.724L6.33 9.2zm-.018.869c-.06.251.047.508.167.725.072.11.149.25.287.28.03-.07-.05-.208-.078-.299-.104-.246-.252-.47-.376-.706Zm2.025.04c-.182.084-.31.255-.405.427-.112.112.026.293.141.167.154-.16.233-.378.264-.594zm-.44.288c-.177.067-.296.234-.386.394-.126.125.023.314.148.17a.972.972 0 0 0 .239-.564Zm-1.723.628c-.108.127.008.317.14.373.113-.022.001-.182-.041-.249-.027-.046-.065-.083-.1-.124zm1.62.228c-.138.013-.208.206-.054.257.176.05.095-.181.055-.257zm-.432.287c-.193-.007-.151.296.02.236.048-.066.014-.17-.02-.236zm.407.336c-.192-.014-.162.29.012.237.05-.065.02-.168-.012-.237zm-.445.288c-.169.014-.21.267-.016.255.12-.031.05-.182.016-.255z"/>
  <path fill="#47a039" d="M2.623 1.734c.03.066.132.36.223.645.101.287.203.578.223.655.022.075.07.104.101.075.062-.046-.457-1.49-.538-1.49-.029 0-.029.058-.01.115Zm3.644.978a1.223 1.223 0 0 1-.172.607c-.132.17-.143.236-.042.294.102.057.11.293.062.958-.03.512-.022.949.031 1.035.07.084.11-.238.132-.987.02-.618 0-1.139-.042-1.167-.05-.02-.022-.153.051-.294a.773.773 0 0 0 .062-.54c-.062-.266-.073-.266-.082.094Z"/>
  <path fill="#ffaa17" d="M12.954 2.944c-.438.109-.617.568-.793.934.26.187.455-.386.745-.155.298.036.448-.468.076-.447-.119-.085.166-.286-.028-.332Zm-3.429.185c.05.384.35.669.644.89.036-.387-.34-.638-.59-.87Zm1.955.189c-.349.128-.729.404-.728.813.233.307.443-.248.515-.444.057-.13.12-.26.213-.369Zm3.068.353c-.259.158-.693.236-.841.449.17.366.654.122.814-.134.065-.074.226-.298.027-.315zm-2.251.46c-.437.11-.617.568-.793.934.259.188.455-.386.745-.155.298.037.448-.468.076-.446-.119-.086.167-.287-.028-.333Zm-3.429.185c.044.392.37.655.639.907-.268.014-.399-.586-.657-.31.013.322.318.686.658.64.343-.187-.028-.579-.16-.79-.129-.176-.28-.352-.48-.447Zm1.78.146c-.167.284-.563.45-.555.82.128.452.42-.316.658-.029.128.065.37.527.436.218-.063-.318-.121-.672-.353-.915a.383.383 0 0 0-.187-.094Zm3.243.397c-.259.157-.693.236-.841.448.17.366.654.123.814-.133.065-.074.226-.299.027-.315zm-1.19.305c-.423-.122-.248.664.084.331.143-.079.101-.355-.083-.331Zm-2.71.485c.097.326-.466.32-.343.585.221.203.562.229.732.502.342.13-.013-.341.113-.483.098-.04.202.128.123-.07-.095-.273-.355-.459-.625-.534Zm-1.764.33c-.104.367.225.737.58.786.335-.054.157-.509-.125-.411-.164-.11-.206-.42-.455-.376Zm3.818.372c-.424-.121-.248.665.084.331.143-.079.1-.355-.084-.33zm-2.492.575c-.107.213.28.604.395.443-.072-.188-.2-.37-.395-.443ZM6.409 2.24c-.02.71.231 1.388.314 2.087-.198.237.252.302.14-.02.04-.333-.024-.69.135-.999-.034-.182-.443.091-.314-.222-.013-.185.267-.61.038-.648-.134.122-.34-.039-.313-.199ZM4.715 4.116c-.338.196-.59.6-.499.998.396.086.32-.44.407-.678a.798.798 0 0 0 .092-.32Zm-1.94.272c.138.368.512.555.842.722-.034-.37-.433-.509-.715-.66-.043-.022-.08-.055-.128-.062zm4.13.55c-.154.31.015.815.399.833.416-.074.13-.575-.157-.58-.074-.09-.134-.2-.242-.252Zm-2.025.016c-.281.236-.567.48-.757.8-.27.185 0 .49.257.397.183.01.535.336.615.127-.14-.325-.433-.66-.205-1.025.036-.098.074-.196.09-.3Zm-1.94.271c.139.368.512.555.842.722-.035-.37-.433-.509-.715-.66-.043-.022-.08-.054-.128-.062Zm2.407.05c-.322.306.543.656.452.195-.087-.159-.3-.152-.452-.195Zm1.717.501c-.076.317.077.878.48.816.323-.18-.019-.573-.26-.592-.061-.085-.117-.186-.22-.224Zm-1.54.336c-.336.296.527.665.447.2-.084-.16-.295-.153-.446-.2Zm-2.887.031c-.1.38.36.648.682.65.304-.18-.005-.518-.272-.444-.136-.068-.237-.241-.41-.206Zm1.777.11c.054.284-.36.426-.239.68.118.26.473.216.633.144.124.176.52.173.298-.1-.142-.303-.34-.642-.692-.723zM2.82 6.98c-.114.31.208.548.469.627.363.248.478-.513.074-.342-.207-.045-.316-.299-.543-.285Zm1.494.611c-.17.268.584.57.363.2a.873.873 0 0 0-.363-.2Zm-.896.103c-.481.173.475.601.245.123a.316.316 0 0 0-.245-.123Zm.165.837c-.48.174.475.601.245.124a.316.316 0 0 0-.245-.124Z"/>
</svg>
