<svg xmlns="http://www.w3.org/2000/svg" viewBox="0 0 42.333 10.583">
  <g style="line-height:4.1;-inkscape-font-specification:&quot;Nimbus Mono PS&quot;">
    <path fill="#ffaa17" d="M69.298 168.652c1.05 0 1.693-.677 1.693-1.792 0-1.08-.6-1.729-1.602-1.729-.345 0-.882.085-1.178.226l.127.416c.226-.091.677-.148.917-.148.635 0 1.045.346 1.15.974h-1.827v.458h1.856c-.043.727-.424 1.101-1.115 1.101-.261 0-.727-.056-.98-.148l-.156.43c.317.148.797.212 1.115.212zm4.341-.049h.571v-1.546h.684l.988 1.546h.663l-1.157-1.8 1.094-1.601h-.628l-.945 1.397h-.699v-1.397h-.571zm6.641.07c1.001 0 1.679-.727 1.679-1.813 0-1.051-.628-1.729-1.595-1.729-1.002 0-1.672.72-1.672 1.806 0 1.052.621 1.736 1.588 1.736zm.077-.494c-.656 0-1.1-.529-1.1-1.312 0-.755.402-1.242 1.03-1.242.656 0 1.107.536 1.107 1.312 0 .748-.409 1.242-1.037 1.242zm3.748.424h.643l.889-1.263.889 1.263h.649l-1.235-1.694 1.298-1.707h-.642l-.931 1.326-.917-1.326h-.65l1.256 1.75zm5.717 1.531h.6l.564-1.531 1.327-3.401h-.565l-1.023 2.85-1.002-2.85h-.627l1.34 3.4zm5.625-1.531h.558v-2.929h1.298v-.472h-3.14v.472h1.284zm5.562.07c1.002 0 1.679-.727 1.679-1.813 0-1.051-.628-1.729-1.595-1.729-1.001 0-1.672.72-1.672 1.806 0 1.052.621 1.736 1.588 1.736zm.077-.494c-.656 0-1.1-.529-1.1-1.312 0-.755.402-1.242 1.03-1.242.656 0 1.108.536 1.108 1.312 0 .748-.41 1.242-1.038 1.242zm4.235 1.955h.565v-1.82c.233.232.557.36.931.36.946 0 1.58-.735 1.58-1.835 0-1.023-.585-1.708-1.46-1.708-.402 0-.79.148-1.08.41l-.14-.34h-.396zm1.468-4.509c.635 0 1.044.508 1.044 1.284 0 .762-.374 1.27-.988 1.27-.416 0-.776-.226-.96-.585v-1.588c.24-.24.572-.38.904-.38z" aria-label="экохутор" font-family="Cantarell" font-size="7.056" letter-spacing="1.688" style="-inkscape-font-specification:Cantarell" transform="translate(-21.951 -73.805) scale(.49001)"/>
  </g>
  <path fill="#47a039" d="M1.994 1.02c-.044.34.226.935.109 1.106-.145.023.239.473.16.685-.02.35.087.685.083 1.035.042.227.188.2.08-.025-.056-.305-.051-.615-.082-.922.163.37.124.829.337 1.154.045.308-.35.466-.155.784.02.453-.183-.222-.23-.347-.184-.512-.368-1.027-.619-1.512-.152.03-.023.469.004.142.268.54.44 1.12.654 1.682-.196-.028-.43-.033-.109.052.333.254.267.738.398 1.1.096.47.189.945.204 1.427-.289-.721-.658-1.413-.87-2.161.09-.344-.184-.585-.18-.954-.036-.187-.092-.415-.056-.088.026.446.159.874.236 1.312-.624-.616-.77-1.519-1.07-2.307-.2-.472.038.324.093.482.104.328.214.655.306.987-.186-.064-.609-.45-.27-.12.32.23.435.6.535.962.187.576.363 1.155.516 1.741-.306-.39-.478-.868-.809-1.24.49.916.994 1.826 1.51 2.728.107.168.243.322.08.05-.413-.767-.698-1.592-.935-2.429a16.494 16.494 0 0 1-.338-1.219c.52.56.682 1.335.93 2.037.138.426.269.855.32 1.3.027.334.369.342.566.344.02.105.177-.024.24.138.093-.12.208-.126.253-.108.353-.748.67-1.513 1.047-2.25.37-.731 1.046-1.233 1.593-1.824a6.204 6.204 0 0 0-1.337 1.3c-.173.016.083-.435.076-.596.118-.42.183-.862.352-1.263.313-.481.771-.842 1.187-1.228.118-.085.556-.472.22-.234-.508.356-.93.814-1.404 1.21.024-.363.253-.866.152-1.142-.1.158-.034.515-.226.5.206.327-.041.727-.195 1.037-.22.22-.351.655-.6.766.092-.6.092-1.214.225-1.809-.08-.445-.01-.915.242-1.296.076-.144.29-.508.227-.537-.176.143-.285.654-.463.598-.017-.163-.026-.81-.053-.34.01.386-.04.775-.248 1.111-.06.151.224-.265.23-.124-.018.36-.215.695-.085 1.056-.094.89-.17 1.81-.58 2.622-.032-.391.052-.82 0-1.225-.104.666-.094 1.348-.257 2.004-.116-.25-.026-.607-.055-.9.01-.412-.02-.834.053-1.24.185-.469.197-.983.352-1.461-.098-.083-.078-.507-.1-.18.035.44-.135.853-.28 1.256-.063.216-.078.694-.224.73.008-.432-.039-.863-.036-1.295-.144-.143-.06.38-.078.486 0 .167.055.759-.157.623-.079-1.03-.135-2.068-.351-3.081.03-.199-.054-.307-.06-.052.043.708.256 1.395.254 2.108.014.57.051 1.143.007 1.71-.037.303-.12.17-.137-.057-.093-.516-.07-1.048-.19-1.56-.112.15 0 .746-.118.28-.21-.818-.445-1.63-.6-2.462-.202-.316-.155-.713-.274-1.057Zm2.344 2.551c.085-.171.27-.554.263-.605a2.226 2.226 0 0 0-.263.605Zm-1.616.769c.21.764.387 1.545.404 2.341-.16-.691-.36-1.372-.52-2.064-.003-.098.016-.229.116-.277Zm2.68.138a7.427 7.427 0 0 1-.956 2.672c-.097.164-.212.304-.133.033.15-.763.301-1.55.733-2.213.112-.166.212-.354.356-.492Zm-2.865.684c.262.358.277.824.395 1.239.13.603.26 1.212.271 1.831-.27-.247-.163-.705-.27-1.037a21.268 21.268 0 0 0-.396-2.033Zm1.072.058c.028.567.023 1.144-.119 1.697a5.566 5.566 0 0 1 .004-1.478c.028-.078.077-.146.115-.219Zm.23.583c.136.436.011.897.02 1.344.021.175-.079.595-.077.195-.022-.504-.061-1.018.035-1.516-.02.004.035-.024.022-.023Zm-.506.348c.142.144-.002.67-.017.226a.79.79 0 0 1 .017-.226Zm-.984.282c.167.284.396.927.372 1.044-.17-.33-.226-.704-.372-1.044Zm1.952.19c-.072.47-.168.94-.28 1.399-.21.221.019-.41.022-.551.061-.29.135-.578.258-.848Zm-.67.38c.047.305.105.948-.025 1.073a3.32 3.32 0 0 1 .004-1.032Zm-.332.275c.085.29.156.94.116 1.024a3.49 3.49 0 0 1-.116-1.024Zm1.045.205c.057.154-.248.5-.098.153.03-.052.042-.12.098-.153Z"/>
  <path fill="#ffaa17" d="M3.213 5.395c-.032.095.03.19.1.252.02.053.151.028.066-.02-.068-.068-.116-.152-.166-.232Zm-.197.13c-.035.096.036.189.105.248a.279.279 0 0 1 .089.203c.028.054.057.15.134.138.008-.145-.085-.27-.176-.374-.061-.065-.103-.142-.152-.215Zm-.01.393c-.039.13.041.254.112.357.048.053.046.132.088.185.074.048.04-.061.02-.094-.064-.139-.11-.285-.189-.416-.007-.014-.02-.022-.031-.032Zm.92.018a.651.651 0 0 0-.253.342c.093.013.145-.084.183-.152.03-.06.079-.12.07-.19Zm-.205.13c-.099.082-.197.18-.23.307-.007.065.051.047.07.004.082-.083.172-.185.16-.31zm-.778.286a.375.375 0 0 0 .064.23c.075.035.027-.1.01-.135a.25.25 0 0 0-.074-.095zm.737.101c-.064.007-.117.155-.039.153.047-.024.085-.113.039-.153zm-.198.131c-.064.006-.118.15-.041.155.044-.027.086-.113.041-.155zm.184.152c-.067.004-.112.15-.041.151.047-.026.083-.106.041-.15zm-.2.131c-.064.003-.122.15-.045.152.048-.022.09-.11.046-.152z"/>
  <path fill="#47a039" d="M1.342 2.155c.014.03.06.163.101.292.046.13.092.262.101.297.01.034.032.047.046.034.028-.021-.207-.675-.244-.675-.013 0-.013.026-.004.052Zm1.651.443a.554.554 0 0 1-.078.275c-.06.077-.065.107-.019.133.046.026.05.133.028.434-.014.232-.01.43.014.469.032.038.05-.108.06-.447.009-.28 0-.516-.019-.529-.023-.009-.01-.069.023-.133a.35.35 0 0 0 .028-.245c-.028-.12-.033-.12-.037.043Z"/>
  <path fill="#ffaa17" d="M6.014 2.703a.521.521 0 0 0-.327.438.678.678 0 0 1 .323-.1c.119-.004.168-.137.051-.18-.055-.042.002-.142-.047-.158Zm-1.55.084c.043.138.126.345.288.35.01-.104-.098-.19-.166-.264a.68.68 0 0 0-.121-.086zm.884.086a.46.46 0 0 0-.32.329c.031.172.204-.007.207-.105.033-.077.06-.158.113-.224Zm1.379.16c-.094.098-.32.083-.353.213.076.136.262.05.338-.045.04-.038.138-.17.015-.168zm-.997.207c-.2.06-.333.263-.347.466.103-.153.328-.067.449-.191.043-.103-.178-.16-.09-.264Zm-1.562.084c.003.17.174.256.25.391-.069-.05-.202-.245-.262-.105.01.15.157.316.319.244.137-.124-.071-.268-.13-.381a.447.447 0 0 0-.177-.149Zm.807.067c-.086.12-.253.223-.243.385.093.138.153-.144.273-.023.064.05.262.236.205.037-.029-.151-.068-.346-.235-.4Zm1.472.18c-.117.07-.307.108-.38.192.054.15.255.088.333-.01.04-.035.153-.158.047-.183zm-.539.138c-.183-.053-.114.28.034.156.064-.039.058-.163-.034-.156Zm-1.232.22c.049.133-.281.2-.103.308.142.003.214.16.338.187.034-.067-.09-.287.063-.214a.387.387 0 0 0-.298-.28Zm-.795.15c-.072.145.075.289.206.329.14.078.18-.196.02-.147-.084-.052-.11-.19-.226-.183Zm1.73.167c-.183-.055-.117.28.033.157.065-.039.06-.164-.033-.157Zm-1.127.26c-.053.096.124.272.17.189-.02-.085-.095-.151-.17-.19ZM3.057 2.383c.006.343.113.775.165 1.053.035-.166.123-.537.062-.615-.27.143.144-.555-.186-.339l-.02-.03Zm-.77.851c-.248.01-.285.677-.076.344.032-.113.027-.235.076-.344Zm-.877.123c.004.195.585.438.26.143a.872.872 0 0 0-.26-.143Zm1.871.25c-.183.26.3.536.266.19-.15.021-.15-.143-.266-.19Zm-.914.006c-.197.14-.646.553-.151.575.161.083.295.11.138-.099-.14-.17-.034-.3.013-.476Zm-.88.123c0 .196.582.437.257.143a.879.879 0 0 0-.258-.143Zm1.095.024c-.197.225.454.211.118.029a.423.423 0 0 0-.118-.03Zm.773.226c-.152.204.296.558.284.196-.133.007-.192-.127-.284-.196Zm-.699.153c-.193.225.452.21.118.03a.477.477 0 0 0-.118-.03Zm-1.3.013c-.156.3.576.342.305.134-.12.006-.187-.128-.306-.134Zm.79.051c-.067.163-.213.417.115.405-.026-.159.37.2.207-.071-.067-.14-.152-.307-.322-.334Zm-.714.328c-.158.3.575.342.304.134-.12.006-.187-.127-.304-.134Zm.683.278c-.074.179.38.23.13.072l-.06-.045Zm-.412.046c-.261.156.367.221.045.009zm.074.38c-.262.158.37.22.046.008z"/>
  <g fill="#47a039">
    <g stroke-width=".265" aria-label="амышофф" font-family="'Alana Pro RUS'" font-size="14.111" style="-inkscape-font-specification:&quot;New Standard Old&quot;">
      <path d="M15.581 5.577c-.757-.107.249-1.51-.593-.619-.382.673-1.668.839-1.197-.26.166-.427.477-.785.843-1.071.712-.521 2.15-.148 1.473.373-.103-.704-1.213-.344-1.487.132-.441.358-.762 1.677.104.815.473-.533.763-1.322 1.224-.774-.015.409-.65 1.658.242.954.323-.343 1.291-1.078.515-.258-.318.3-.67.652-1.124.708Zm.885.345c-.47-.327.391-.153.92-.723.593-.594 1.143-1.202 1.628-1.89.688.395-.845 1.72-.369 1.99.434.245 1.02-1.154 1.597-1.513.646-.575.934-.275.42.275-.178.336-.83 1.648.098 1.063.55-.396 1.368-1.07.514-.19-.493.626-1.813.999-1.333-.191.452-1.075-.392.215-.603.495-.489.712-1.473.071-.937-.66.255-.525-.664.588-.915.796-.298.238-.607.533-1.02.548z" style="-inkscape-font-specification:&quot;Alana Pro RUS&quot;"/>
      <path d="M23.388 4.166c-.326-.213-.633.312-.781.511-.475.74.272.85.579.114.07-.194.307-.42.202-.625zm.118.56c-.173.392-.48.808-.92.878-.56.046-.581-.544-.456-.92-.034-.241.498-1.295.082-.884-.147.32-1.394 1.293-.623.438.346-.254.811-1.278 1.287-.874-.041.563-.294.805.373.56.583.01.086 1.042.595.311.155-.469 1.121-1.3.782-.29-.64.672-.493 1.92.514.802.795-.724.094.366-.276.542-.65.66-1.293-.282-1.02-.84-.103.105-.23.179-.338.277z" style="-inkscape-font-specification:&quot;Alana Pro RUS&quot;"/>
      <path d="M27.426 5.632c-.637-.171.584-1.82-.347-.784-.366.448-1.592 1.368-1.287.11.174-.423.59-1.466-.047-.593-.722.572.448-.77.616-.939.947-.573-.153 1.216-.127 1.624.36.353 1.124-.82 1.462-1.175.44-.586.967-.792.477-.027-.204.413-.818 1.905.034 1.065.427-.475.875-1.217 1.425-1.566.352-.01-.938 1.799-.04 1.871.225.018 1.007-.92.593-.241-.368.672-1.637.766-1.258-.313.224-.794-1.02 1.042-1.5.968z" style="-inkscape-font-specification:&quot;Alana Pro RUS&quot;"/>
      <path d="M30.87 5.604c-1.023-.183-.448-1.595.09-2.04.52-.65 1.703-.223 1.23.622-.447.822.386.5.733.325-.325.6-.781.264-1.372.879-.145.14-.48.217-.681.214Zm.13-.228c.771-.132.186-.784.664-1.084.64-.4.345-1.254-.213-.627-.394.371-.63.752-.741 1.277-.011.193.024.467.29.434z" style="-inkscape-font-specification:&quot;Alana Pro RUS&quot;"/>
      <path d="M33.313 5.17c.53-.232 1.911-1.52 1.06-1.647-.627-.093-1.03.743-1.187 1.33-.023.085-.042.392.127.317zm2.88-1.253c.52-1.137-.96-.003-1.216.436-.33.563-.164.987.455.596.607-.384.544-.554.762-1.032zM34.61 5.289c-.352.71-.58 1.49-.774 2.244-.12.55-.151 1.142-.361 1.67-.684-.24-.152-.929.029-1.87.245-1.04.703-1.994 1.037-3.001-.431.435-.824 1.067-1.466 1.251-.678-.223-.145-1.163.11-1.597.44-.58 1.09-.87 1.66-.484.216-.197.617-.897.535-.114-.791 1.06 1.434-1.291 1.23.339-.334.637-.105 1.188.49.771.31.226-.868.461-1.005.35-.414.49-.92.46-1.485.441z" style="-inkscape-font-specification:&quot;Alana Pro RUS&quot;"/>
    </g>
    <path d="M10.507 1.533a.485.485 0 0 0-.138.034c.019.318-.039.735-.172 1.25-.133.517-.241.849-.386 1.325-.909.474-1.76.954-2.645 1.484-.228.147-.343.241-.343.282 0 .253.23.38.686.38.576.015 1.22.003 1.652.003-.126.324-.203.601-.322.978-.152.507-.205.928-.157 1.263.181.066.271-.004.271-.208-.019-.327.043-.72.186-1.177.117-.271.197-.555.295-.832.22.001 1.401.008 2.182.031.734.018 1.468.045 2.202.071.023-.104-.01-.173-.1-.206-.408-.142-1.602-.103-2.264-.12a96.999 96.999 0 0 1-1.936-.047l.55-1.755c.549-.286 1.12-.606 1.658-.895.715-.36 1.292-.597 1.73-.711.42-.065.19.13.286.196.028.032.085.045.171.036.067-.433-.142-.584-.628-.453-.448.114-1.044.364-1.787.748-.438.231-.884.462-1.344.7.133-.393.236-.788.343-1.166.134-.548.186-.912.157-1.091-.013-.085-.062-.125-.147-.12Zm-.782 2.965-.431 1.536c-.447.03-.576.027-1.329.041-.571.008-.98-.003-.513-.314.762-.491 1.519-.865 2.273-1.263Z" font-family="'Bella Script CYR'" font-size="28.311" style="-inkscape-font-specification:&quot;Bella Script CYR&quot;"/>
    <path d="M37.65 5.164c.529-.232 1.91-1.52 1.06-1.647-.628-.093-1.031.742-1.188 1.33-.023.085-.042.391.127.317zm2.88-1.253c.518-1.137-.96-.003-1.217.435-.33.564-.164.988.455.597.608-.384.544-.554.762-1.032Zm-1.584 1.372c-.351.71-.58 1.489-.774 2.244-.12.55-.15 1.141-.361 1.67-.684-.24-.152-.93.03-1.87.244-1.04.702-1.994 1.037-3.001-.432.435-.825 1.066-1.467 1.251-.677-.223-.145-1.164.111-1.597.439-.58 1.089-.87 1.66-.484.215-.198.616-.898.534-.114-.791 1.06 1.434-1.291 1.23.338-.334.638-.105 1.19.49.772.31.226-.868.461-1.004.35-.415.49-.92.46-1.486.441z" style="-inkscape-font-specification:&quot;Alana Pro RUS&quot;"/>
  </g>
</svg>
